<?xml version="1.0" encoding="UTF-8"?>
<svg id="Layer_1" xmlns="http://www.w3.org/2000/svg" version="1.1" viewBox="0 0 1500 500">
  <!-- Generator: Adobe Illustrator 29.3.1, SVG Export Plug-In . SVG Version: 2.1.0 Build 151)  -->
  <defs>
    <style>
      .st0 {
        fill: #ff8236;
      }

      .st1 {
        fill: #fff;
      }

      .st2 {
        fill: #1b1f20;
      }
    </style>
  </defs>
  <rect class="st2" width="1500" height="500" rx="16" ry="16"/>
  <g>
    <path class="st1" d="M749.4,353.8l5.4-204.1,20.4-.8,45.1,98.8,42.5-99h19l6.5,205h-38l-2-98-24.9,61.4c-1,1.3-8,1.3-9-1l-25.6-61.4-1.5,99h-38Z"/>
    <path class="st1" d="M727.5,240.1c-10.8-27.1-53.1-24.5-75.3-14.7l3.1,28.4c9.2-1.9,30-8,37.5-1,.9.9,3.5,5.7,3.5,6.5v16.5c-31.8-17.2-54.5,6.1-54.4,38.5,0,36.5,28.4,57.3,56.4,27.5v12h32v-104.5c0-.5-2.4-8-2.8-9.2ZM696.4,327.8c-8.4,1.7-15.4,2.9-19.2-6.3-5.8-14,.6-37.9,19.2-27.2v33.5Z"/>
    <path class="st1" d="M899.4,353.8l47.6-205.1h30.3c0,.1,47,205.1,47,205.1h-38l-7.9-33.6h-34.1l-7.9,33.6h-37ZM951.4,285.8h20l-10.5-56-9.5,56Z"/>
    <polygon class="st1" points="490.4 148.8 490.4 317.3 491.9 318.8 534.4 318.8 534.4 353.8 451.4 353.8 451.4 150.3 452.9 148.8 490.4 148.8"/>
    <polygon class="st1" points="589.4 148.8 589.4 318.8 633.4 318.8 633.4 353.8 550.4 353.8 550.4 148.8 589.4 148.8"/>
    <g>
      <path class="st0" d="M1163.3,226.8l-13.5,24c-17.8-13.7-44.2-15.7-62-1-28.7,23.7-26.7,78.5,18,78.8,12.5,0,23.1-5.9,34.5-9.8l6,23.9c-10.1,4.7-20.4,9.5-31.5,11-101.2,13.8-95.4-132.3-3.9-139.9,19.2-1.6,36.1,3.4,52.5,13Z"/>
      <path class="st0" d="M1093.4,203.8c-15.4,4.6-29.7,13.1-40.5,25-2-24.2,3.4-73.1,30.3-82.7,4-1.4,17.7-4.9,17.3,2.2s-9.9,19.3-12.2,25.9c-4,11.6-.3,19.6,5.2,29.7Z"/>
      <polygon class="st0" points="1131.4 258.8 1131.4 276.8 1147.4 276.8 1147.4 290.8 1131.4 290.8 1131.4 307.8 1116.4 307.8 1116.4 290.8 1099.4 290.8 1099.4 276.8 1114.9 276.8 1116.4 275.3 1116.4 258.8 1131.4 258.8"/>
      <polygon class="st0" points="1186.4 258.8 1186.4 275.3 1187.9 276.8 1203.4 276.8 1203.4 290.8 1186.4 290.8 1186.4 307.8 1171.4 307.8 1171.4 290.8 1155.4 290.8 1155.4 276.8 1171.4 276.8 1171.4 258.8 1186.4 258.8"/>
      <path class="st0" d="M1142.3,156.9c2,3-9.3,15.9-11.1,19.2-5.2,9.8-1.7,15.4,2.2,24.7-11.3-1.7-21.8-.3-33,1,2.5-21.5,14.6-52.8,41.9-44.9Z"/>
    </g>
  </g>
</svg>